<?xml version="1.0" encoding="UTF-8" standalone="no"?>
<!DOCTYPE svg PUBLIC "-//W3C//DTD SVG 1.1//EN" "http://www.w3.org/Graphics/SVG/1.1/DTD/svg11.dtd">
<svg width="100%" height="100%" viewBox="0 0 1920 640" version="1.1" xmlns="http://www.w3.org/2000/svg" xmlns:xlink="http://www.w3.org/1999/xlink" xml:space="preserve" xmlns:serif="http://www.serif.com/" style="fill-rule:evenodd;clip-rule:evenodd;stroke-linecap:round;stroke-linejoin:round;stroke-miterlimit:1.5;">
    <g transform="matrix(1,0,0,1,1.95186,-1197.59)">
        <g transform="matrix(1,0,0,7.2802,0,1197.59)">
            <g transform="matrix(4.32432,0,0,0.197943,0.210303,-4.26326e-14)">
                <rect x="-0.5" y="0" width="444" height="444" style="fill:rgb(128,128,128);fill-opacity:0;"/>
            </g>
        </g>
        <g transform="matrix(1,0,0,7.2802,0,1197.59)">
            <g transform="matrix(0.411682,0.0565482,-2.99713,0.411682,476.267,44.5994)">
                <g opacity="0.25">
                    <g transform="matrix(1,0,0,1,22,-5.08228)">
                        <g transform="matrix(1,0,0,0.137359,-32,-6.31851)">
                            <path d="M342,115.48C342,109.144 336.856,104 330.52,104L92.48,104C86.144,104 81,109.144 81,115.48L81,256.52C81,262.856 86.144,268 92.48,268L330.52,268C336.856,268 342,262.856 342,256.52L342,115.48Z" style="fill:none;stroke:rgb(128,128,128);stroke-width:5.52px;"/>
                        </g>
                        <g transform="matrix(1,0,0,0.137359,-3.5,-3.98341)">
                            <rect x="165" y="251" width="36" height="36" style="fill:none;stroke:rgb(128,128,128);stroke-width:5.52px;"/>
                        </g>
                        <g transform="matrix(1,0,0,0.137359,-0.75,-3.98341)">
                            <rect x="139" y="287" width="82.5" height="9" style="fill:none;stroke:rgb(128,128,128);stroke-width:5.52px;"/>
                        </g>
                    </g>
                    <g transform="matrix(0.736472,-0.027106,1.43665,0.736472,-19.7038,14.5829)">
                        <g transform="matrix(1,0,0,0.137359,0,0)">
                            <rect x="22" y="266" width="261" height="75" style="fill:none;stroke:rgb(128,128,128);stroke-width:7.24px;"/>
                        </g>
                        <g transform="matrix(1,0,0,0.137359,0,0)">
                            <path d="M199,273.71C199,272.766 198.234,272 197.29,272L32.71,272C31.766,272 31,272.766 31,273.71L31,279.29C31,280.234 31.766,281 32.71,281L197.29,281C198.234,281 199,280.234 199,279.29L199,273.71Z" style="fill:rgb(128,128,128);"/>
                        </g>
                        <g transform="matrix(1,0,0,0.137359,0,0)">
                            <path d="M199,290.68C199,289.753 198.247,289 197.32,289L32.68,289C31.753,289 31,289.753 31,290.68L31,329.32C31,330.247 31.753,331 32.68,331L197.32,331C198.247,331 199,330.247 199,329.32L199,290.68Z" style="fill:rgb(128,128,128);"/>
                        </g>
                        <g transform="matrix(1,0,0,0.137359,0,0)">
                            <path d="M239,273.8C239,272.807 238.193,272 237.2,272L210.8,272C209.807,272 209,272.807 209,273.8L209,279.2C209,280.193 209.807,281 210.8,281L237.2,281C238.193,281 239,280.193 239,279.2L239,273.8Z" style="fill:rgb(128,128,128);"/>
                        </g>
                        <g transform="matrix(1,0,0,0.137359,-3,1.56159e-14)">
                            <path d="M242,290.68C242,289.753 241.247,289 240.32,289L213.68,289C212.753,289 212,289.753 212,290.68L212,308.32C212,309.247 212.753,310 213.68,310L240.32,310C241.247,310 242,309.247 242,308.32L242,290.68Z" style="fill:rgb(128,128,128);"/>
                        </g>
                        <g transform="matrix(1,0,0,0.274718,34,-39.6967)">
                            <path d="M242,289.75C242,289.336 241.328,289 240.5,289L213.5,289C212.672,289 212,289.336 212,289.75L212,309.25C212,309.664 212.672,310 213.5,310L240.5,310C241.328,310 242,309.664 242,309.25L242,289.75Z" style="fill:rgb(128,128,128);"/>
                        </g>
                        <g transform="matrix(1,0,0,0.137359,-1,0)">
                            <path d="M229,317.5C229,316.672 228.328,316 227.5,316L222.5,316C221.672,316 221,316.672 221,317.5L221,320.5C221,321.328 221.672,322 222.5,322L227.5,322C228.328,322 229,321.328 229,320.5L229,317.5Z" style="fill:rgb(128,128,128);"/>
                        </g>
                        <g transform="matrix(1,0,0,0.137359,-12,1.23623)">
                            <path d="M229,317.5C229,316.672 228.328,316 227.5,316L222.5,316C221.672,316 221,316.672 221,317.5L221,320.5C221,321.328 221.672,322 222.5,322L227.5,322C228.328,322 229,321.328 229,320.5L229,317.5Z" style="fill:rgb(128,128,128);"/>
                        </g>
                        <g transform="matrix(1,0,0,0.137359,-1,1.23623)">
                            <path d="M229,317.5C229,316.672 228.328,316 227.5,316L222.5,316C221.672,316 221,316.672 221,317.5L221,320.5C221,321.328 221.672,322 222.5,322L227.5,322C228.328,322 229,321.328 229,320.5L229,317.5Z" style="fill:rgb(128,128,128);"/>
                        </g>
                        <g transform="matrix(1,0,0,0.137359,10,1.23623)">
                            <path d="M229,317.5C229,316.672 228.328,316 227.5,316L222.5,316C221.672,316 221,316.672 221,317.5L221,320.5C221,321.328 221.672,322 222.5,322L227.5,322C228.328,322 229,321.328 229,320.5L229,317.5Z" style="fill:rgb(128,128,128);"/>
                        </g>
                    </g>
                    <g transform="matrix(0.658645,0.0242416,-0.176483,0.0904707,165.381,10.2735)">
                        <path d="M298.25,271L303.52,271C312.064,271 319,277.936 319,286.48L319,304.121C319,304.212 318.999,304.303 318.997,304.394C318.999,304.596 319,304.798 319,305C319,323.765 309.366,339 297.5,339C285.634,339 276,323.765 276,305C276,304.798 276.001,304.596 276.003,304.394C276.001,304.303 276,304.212 276,304.121L276,286.48C276,277.936 282.936,271 291.48,271L296.75,271L296.75,292.935L298.25,292.935L298.25,271Z" style="fill:rgb(128,128,128);"/>
                    </g>
                </g>
            </g>
        </g>
        <g transform="matrix(1,0,0,7.2802,0,1197.59)">
            <g transform="matrix(0.411682,0.0565482,-2.99713,0.411682,1122.51,44.5994)">
                <g opacity="0.25">
                    <g transform="matrix(1,0,0,1,22,-5.08228)">
                        <g transform="matrix(1,0,0,0.137359,-32,-6.31851)">
                            <path d="M342,115.48C342,109.144 336.856,104 330.52,104L92.48,104C86.144,104 81,109.144 81,115.48L81,256.52C81,262.856 86.144,268 92.48,268L330.52,268C336.856,268 342,262.856 342,256.52L342,115.48Z" style="fill:none;stroke:rgb(128,128,128);stroke-width:5.52px;"/>
                        </g>
                        <g transform="matrix(1,0,0,0.137359,-3.5,-3.98341)">
                            <rect x="165" y="251" width="36" height="36" style="fill:none;stroke:rgb(128,128,128);stroke-width:5.52px;"/>
                        </g>
                        <g transform="matrix(1,0,0,0.137359,-0.75,-3.98341)">
                            <rect x="139" y="287" width="82.5" height="9" style="fill:none;stroke:rgb(128,128,128);stroke-width:5.52px;"/>
                        </g>
                    </g>
                    <g transform="matrix(0.736472,-0.027106,1.43665,0.736472,-19.7038,14.5829)">
                        <g transform="matrix(1,0,0,0.137359,0,0)">
                            <rect x="22" y="266" width="261" height="75" style="fill:none;stroke:rgb(128,128,128);stroke-width:7.24px;"/>
                        </g>
                        <g transform="matrix(1,0,0,0.137359,0,0)">
                            <path d="M199,273.71C199,272.766 198.234,272 197.29,272L32.71,272C31.766,272 31,272.766 31,273.71L31,279.29C31,280.234 31.766,281 32.71,281L197.29,281C198.234,281 199,280.234 199,279.29L199,273.71Z" style="fill:rgb(128,128,128);"/>
                        </g>
                        <g transform="matrix(1,0,0,0.137359,0,0)">
                            <path d="M199,290.68C199,289.753 198.247,289 197.32,289L32.68,289C31.753,289 31,289.753 31,290.68L31,329.32C31,330.247 31.753,331 32.68,331L197.32,331C198.247,331 199,330.247 199,329.32L199,290.68Z" style="fill:rgb(128,128,128);"/>
                        </g>
                        <g transform="matrix(1,0,0,0.137359,0,0)">
                            <path d="M239,273.8C239,272.807 238.193,272 237.2,272L210.8,272C209.807,272 209,272.807 209,273.8L209,279.2C209,280.193 209.807,281 210.8,281L237.2,281C238.193,281 239,280.193 239,279.2L239,273.8Z" style="fill:rgb(128,128,128);"/>
                        </g>
                        <g transform="matrix(1,0,0,0.137359,-3,1.56159e-14)">
                            <path d="M242,290.68C242,289.753 241.247,289 240.32,289L213.68,289C212.753,289 212,289.753 212,290.68L212,308.32C212,309.247 212.753,310 213.68,310L240.32,310C241.247,310 242,309.247 242,308.32L242,290.68Z" style="fill:rgb(128,128,128);"/>
                        </g>
                        <g transform="matrix(1,0,0,0.274718,34,-39.6967)">
                            <path d="M242,289.75C242,289.336 241.328,289 240.5,289L213.5,289C212.672,289 212,289.336 212,289.75L212,309.25C212,309.664 212.672,310 213.5,310L240.5,310C241.328,310 242,309.664 242,309.25L242,289.75Z" style="fill:rgb(128,128,128);"/>
                        </g>
                        <g transform="matrix(1,0,0,0.137359,-1,0)">
                            <path d="M229,317.5C229,316.672 228.328,316 227.5,316L222.5,316C221.672,316 221,316.672 221,317.5L221,320.5C221,321.328 221.672,322 222.5,322L227.5,322C228.328,322 229,321.328 229,320.5L229,317.5Z" style="fill:rgb(128,128,128);"/>
                        </g>
                        <g transform="matrix(1,0,0,0.137359,-12,1.23623)">
                            <path d="M229,317.5C229,316.672 228.328,316 227.5,316L222.5,316C221.672,316 221,316.672 221,317.5L221,320.5C221,321.328 221.672,322 222.5,322L227.5,322C228.328,322 229,321.328 229,320.5L229,317.5Z" style="fill:rgb(128,128,128);"/>
                        </g>
                        <g transform="matrix(1,0,0,0.137359,-1,1.23623)">
                            <path d="M229,317.5C229,316.672 228.328,316 227.5,316L222.5,316C221.672,316 221,316.672 221,317.5L221,320.5C221,321.328 221.672,322 222.5,322L227.5,322C228.328,322 229,321.328 229,320.5L229,317.5Z" style="fill:rgb(128,128,128);"/>
                        </g>
                        <g transform="matrix(1,0,0,0.137359,10,1.23623)">
                            <path d="M229,317.5C229,316.672 228.328,316 227.5,316L222.5,316C221.672,316 221,316.672 221,317.5L221,320.5C221,321.328 221.672,322 222.5,322L227.5,322C228.328,322 229,321.328 229,320.5L229,317.5Z" style="fill:rgb(128,128,128);"/>
                        </g>
                    </g>
                    <g transform="matrix(0.658645,0.0242416,-0.176483,0.0904707,165.381,10.2735)">
                        <path d="M298.25,271L303.52,271C312.064,271 319,277.936 319,286.48L319,304.121C319,304.212 318.999,304.303 318.997,304.394C318.999,304.596 319,304.798 319,305C319,323.765 309.366,339 297.5,339C285.634,339 276,323.765 276,305C276,304.798 276.001,304.596 276.003,304.394C276.001,304.303 276,304.212 276,304.121L276,286.48C276,277.936 282.936,271 291.48,271L296.75,271L296.75,292.935L298.25,292.935L298.25,271Z" style="fill:rgb(128,128,128);"/>
                    </g>
                </g>
            </g>
        </g>
        <g transform="matrix(1,0,0,7.2802,0,1197.59)">
            <g transform="matrix(0.411682,0.0565482,-2.99713,0.411682,1768.75,44.5994)">
                <g opacity="0.25">
                    <g transform="matrix(1,0,0,1,22,-5.08228)">
                        <g transform="matrix(1,0,0,0.137359,-32,-6.31851)">
                            <path d="M342,115.48C342,109.144 336.856,104 330.52,104L92.48,104C86.144,104 81,109.144 81,115.48L81,256.52C81,262.856 86.144,268 92.48,268L330.52,268C336.856,268 342,262.856 342,256.52L342,115.48Z" style="fill:none;stroke:rgb(128,128,128);stroke-width:5.52px;"/>
                        </g>
                        <g transform="matrix(1,0,0,0.137359,-3.5,-3.98341)">
                            <rect x="165" y="251" width="36" height="36" style="fill:none;stroke:rgb(128,128,128);stroke-width:5.52px;"/>
                        </g>
                        <g transform="matrix(1,0,0,0.137359,-0.75,-3.98341)">
                            <rect x="139" y="287" width="82.5" height="9" style="fill:none;stroke:rgb(128,128,128);stroke-width:5.52px;"/>
                        </g>
                    </g>
                    <g transform="matrix(0.736472,-0.027106,1.43665,0.736472,-19.7038,14.5829)">
                        <g transform="matrix(1,0,0,0.137359,0,0)">
                            <rect x="22" y="266" width="261" height="75" style="fill:none;stroke:rgb(128,128,128);stroke-width:7.24px;"/>
                        </g>
                        <g transform="matrix(1,0,0,0.137359,0,0)">
                            <path d="M199,273.71C199,272.766 198.234,272 197.29,272L32.71,272C31.766,272 31,272.766 31,273.71L31,279.29C31,280.234 31.766,281 32.71,281L197.29,281C198.234,281 199,280.234 199,279.29L199,273.71Z" style="fill:rgb(128,128,128);"/>
                        </g>
                        <g transform="matrix(1,0,0,0.137359,0,0)">
                            <path d="M199,290.68C199,289.753 198.247,289 197.32,289L32.68,289C31.753,289 31,289.753 31,290.68L31,329.32C31,330.247 31.753,331 32.68,331L197.32,331C198.247,331 199,330.247 199,329.32L199,290.68Z" style="fill:rgb(128,128,128);"/>
                        </g>
                        <g transform="matrix(1,0,0,0.137359,0,0)">
                            <path d="M239,273.8C239,272.807 238.193,272 237.2,272L210.8,272C209.807,272 209,272.807 209,273.8L209,279.2C209,280.193 209.807,281 210.8,281L237.2,281C238.193,281 239,280.193 239,279.2L239,273.8Z" style="fill:rgb(128,128,128);"/>
                        </g>
                        <g transform="matrix(1,0,0,0.137359,-3,1.56159e-14)">
                            <path d="M242,290.68C242,289.753 241.247,289 240.32,289L213.68,289C212.753,289 212,289.753 212,290.68L212,308.32C212,309.247 212.753,310 213.68,310L240.32,310C241.247,310 242,309.247 242,308.32L242,290.68Z" style="fill:rgb(128,128,128);"/>
                        </g>
                        <g transform="matrix(1,0,0,0.274718,34,-39.6967)">
                            <path d="M242,289.75C242,289.336 241.328,289 240.5,289L213.5,289C212.672,289 212,289.336 212,289.75L212,309.25C212,309.664 212.672,310 213.5,310L240.5,310C241.328,310 242,309.664 242,309.25L242,289.75Z" style="fill:rgb(128,128,128);"/>
                        </g>
                        <g transform="matrix(1,0,0,0.137359,-1,0)">
                            <path d="M229,317.5C229,316.672 228.328,316 227.5,316L222.5,316C221.672,316 221,316.672 221,317.5L221,320.5C221,321.328 221.672,322 222.5,322L227.5,322C228.328,322 229,321.328 229,320.5L229,317.5Z" style="fill:rgb(128,128,128);"/>
                        </g>
                        <g transform="matrix(1,0,0,0.137359,-12,1.23623)">
                            <path d="M229,317.5C229,316.672 228.328,316 227.5,316L222.5,316C221.672,316 221,316.672 221,317.5L221,320.5C221,321.328 221.672,322 222.5,322L227.5,322C228.328,322 229,321.328 229,320.5L229,317.5Z" style="fill:rgb(128,128,128);"/>
                        </g>
                        <g transform="matrix(1,0,0,0.137359,-1,1.23623)">
                            <path d="M229,317.5C229,316.672 228.328,316 227.5,316L222.5,316C221.672,316 221,316.672 221,317.5L221,320.5C221,321.328 221.672,322 222.5,322L227.5,322C228.328,322 229,321.328 229,320.5L229,317.5Z" style="fill:rgb(128,128,128);"/>
                        </g>
                        <g transform="matrix(1,0,0,0.137359,10,1.23623)">
                            <path d="M229,317.5C229,316.672 228.328,316 227.5,316L222.5,316C221.672,316 221,316.672 221,317.5L221,320.5C221,321.328 221.672,322 222.5,322L227.5,322C228.328,322 229,321.328 229,320.5L229,317.5Z" style="fill:rgb(128,128,128);"/>
                        </g>
                    </g>
                    <g transform="matrix(0.658645,0.0242416,-0.176483,0.0904707,165.381,10.2735)">
                        <path d="M298.25,271L303.52,271C312.064,271 319,277.936 319,286.48L319,304.121C319,304.212 318.999,304.303 318.997,304.394C318.999,304.596 319,304.798 319,305C319,323.765 309.366,339 297.5,339C285.634,339 276,323.765 276,305C276,304.798 276.001,304.596 276.003,304.394C276.001,304.303 276,304.212 276,304.121L276,286.48C276,277.936 282.936,271 291.48,271L296.75,271L296.75,292.935L298.25,292.935L298.25,271Z" style="fill:rgb(128,128,128);"/>
                    </g>
                </g>
            </g>
        </g>
        <g transform="matrix(1,0,0,7.2802,0,1197.59)">
            <g transform="matrix(0.582207,0,0,0.582207,48.5508,7.03198)">
                <g opacity="0.25">
                    <g transform="matrix(1,0,0,1,22,-5.08228)">
                        <g transform="matrix(1,0,0,0.137359,-32,-6.31851)">
                            <path d="M342,115.48C342,109.144 336.856,104 330.52,104L92.48,104C86.144,104 81,109.144 81,115.48L81,256.52C81,262.856 86.144,268 92.48,268L330.52,268C336.856,268 342,262.856 342,256.52L342,115.48Z" style="fill:none;stroke:rgb(128,128,128);stroke-width:5.52px;"/>
                        </g>
                        <g transform="matrix(1,0,0,0.137359,-3.5,-3.98341)">
                            <rect x="165" y="251" width="36" height="36" style="fill:none;stroke:rgb(128,128,128);stroke-width:5.52px;"/>
                        </g>
                        <g transform="matrix(1,0,0,0.137359,-0.75,-3.98341)">
                            <rect x="139" y="287" width="82.5" height="9" style="fill:none;stroke:rgb(128,128,128);stroke-width:5.52px;"/>
                        </g>
                    </g>
                    <g transform="matrix(0.736472,-0.027106,1.43665,0.736472,-19.7038,14.5829)">
                        <g transform="matrix(1,0,0,0.137359,0,0)">
                            <rect x="22" y="266" width="261" height="75" style="fill:none;stroke:rgb(128,128,128);stroke-width:7.24px;"/>
                        </g>
                        <g transform="matrix(1,0,0,0.137359,0,0)">
                            <path d="M199,273.71C199,272.766 198.234,272 197.29,272L32.71,272C31.766,272 31,272.766 31,273.71L31,279.29C31,280.234 31.766,281 32.71,281L197.29,281C198.234,281 199,280.234 199,279.29L199,273.71Z" style="fill:rgb(128,128,128);"/>
                        </g>
                        <g transform="matrix(1,0,0,0.137359,0,0)">
                            <path d="M199,290.68C199,289.753 198.247,289 197.32,289L32.68,289C31.753,289 31,289.753 31,290.68L31,329.32C31,330.247 31.753,331 32.68,331L197.32,331C198.247,331 199,330.247 199,329.32L199,290.68Z" style="fill:rgb(128,128,128);"/>
                        </g>
                        <g transform="matrix(1,0,0,0.137359,0,0)">
                            <path d="M239,273.8C239,272.807 238.193,272 237.2,272L210.8,272C209.807,272 209,272.807 209,273.8L209,279.2C209,280.193 209.807,281 210.8,281L237.2,281C238.193,281 239,280.193 239,279.2L239,273.8Z" style="fill:rgb(128,128,128);"/>
                        </g>
                        <g transform="matrix(1,0,0,0.137359,-3,1.56159e-14)">
                            <path d="M242,290.68C242,289.753 241.247,289 240.32,289L213.68,289C212.753,289 212,289.753 212,290.68L212,308.32C212,309.247 212.753,310 213.68,310L240.32,310C241.247,310 242,309.247 242,308.32L242,290.68Z" style="fill:rgb(128,128,128);"/>
                        </g>
                        <g transform="matrix(1,0,0,0.274718,34,-39.6967)">
                            <path d="M242,289.75C242,289.336 241.328,289 240.5,289L213.5,289C212.672,289 212,289.336 212,289.75L212,309.25C212,309.664 212.672,310 213.5,310L240.5,310C241.328,310 242,309.664 242,309.25L242,289.75Z" style="fill:rgb(128,128,128);"/>
                        </g>
                        <g transform="matrix(1,0,0,0.137359,-1,0)">
                            <path d="M229,317.5C229,316.672 228.328,316 227.5,316L222.5,316C221.672,316 221,316.672 221,317.5L221,320.5C221,321.328 221.672,322 222.5,322L227.5,322C228.328,322 229,321.328 229,320.5L229,317.5Z" style="fill:rgb(128,128,128);"/>
                        </g>
                        <g transform="matrix(1,0,0,0.137359,-12,1.23623)">
                            <path d="M229,317.5C229,316.672 228.328,316 227.5,316L222.5,316C221.672,316 221,316.672 221,317.5L221,320.5C221,321.328 221.672,322 222.5,322L227.5,322C228.328,322 229,321.328 229,320.5L229,317.5Z" style="fill:rgb(128,128,128);"/>
                        </g>
                        <g transform="matrix(1,0,0,0.137359,-1,1.23623)">
                            <path d="M229,317.5C229,316.672 228.328,316 227.5,316L222.5,316C221.672,316 221,316.672 221,317.5L221,320.5C221,321.328 221.672,322 222.5,322L227.5,322C228.328,322 229,321.328 229,320.5L229,317.5Z" style="fill:rgb(128,128,128);"/>
                        </g>
                        <g transform="matrix(1,0,0,0.137359,10,1.23623)">
                            <path d="M229,317.5C229,316.672 228.328,316 227.5,316L222.5,316C221.672,316 221,316.672 221,317.5L221,320.5C221,321.328 221.672,322 222.5,322L227.5,322C228.328,322 229,321.328 229,320.5L229,317.5Z" style="fill:rgb(128,128,128);"/>
                        </g>
                    </g>
                    <g transform="matrix(0.658645,0.0242416,-0.176483,0.0904707,165.381,10.2735)">
                        <path d="M298.25,271L303.52,271C312.064,271 319,277.936 319,286.48L319,304.121C319,304.212 318.999,304.303 318.997,304.394C318.999,304.596 319,304.798 319,305C319,323.765 309.366,339 297.5,339C285.634,339 276,323.765 276,305C276,304.798 276.001,304.596 276.003,304.394C276.001,304.303 276,304.212 276,304.121L276,286.48C276,277.936 282.936,271 291.48,271L296.75,271L296.75,292.935L298.25,292.935L298.25,271Z" style="fill:rgb(128,128,128);"/>
                    </g>
                </g>
            </g>
        </g>
        <g transform="matrix(1,0,0,7.2802,0,1197.59)">
            <g transform="matrix(0.582207,0,0,0.582207,688.384,7.03198)">
                <g opacity="0.25">
                    <g transform="matrix(1,0,0,1,22,-5.08228)">
                        <g transform="matrix(1,0,0,0.137359,-32,-6.31851)">
                            <path d="M342,115.48C342,109.144 336.856,104 330.52,104L92.48,104C86.144,104 81,109.144 81,115.48L81,256.52C81,262.856 86.144,268 92.48,268L330.52,268C336.856,268 342,262.856 342,256.52L342,115.48Z" style="fill:none;stroke:rgb(128,128,128);stroke-width:5.52px;"/>
                        </g>
                        <g transform="matrix(1,0,0,0.137359,-3.5,-3.98341)">
                            <rect x="165" y="251" width="36" height="36" style="fill:none;stroke:rgb(128,128,128);stroke-width:5.52px;"/>
                        </g>
                        <g transform="matrix(1,0,0,0.137359,-0.75,-3.98341)">
                            <rect x="139" y="287" width="82.5" height="9" style="fill:none;stroke:rgb(128,128,128);stroke-width:5.52px;"/>
                        </g>
                    </g>
                    <g transform="matrix(0.736472,-0.027106,1.43665,0.736472,-19.7038,14.5829)">
                        <g transform="matrix(1,0,0,0.137359,0,0)">
                            <rect x="22" y="266" width="261" height="75" style="fill:none;stroke:rgb(128,128,128);stroke-width:7.24px;"/>
                        </g>
                        <g transform="matrix(1,0,0,0.137359,0,0)">
                            <path d="M199,273.71C199,272.766 198.234,272 197.29,272L32.71,272C31.766,272 31,272.766 31,273.71L31,279.29C31,280.234 31.766,281 32.71,281L197.29,281C198.234,281 199,280.234 199,279.29L199,273.71Z" style="fill:rgb(128,128,128);"/>
                        </g>
                        <g transform="matrix(1,0,0,0.137359,0,0)">
                            <path d="M199,290.68C199,289.753 198.247,289 197.32,289L32.68,289C31.753,289 31,289.753 31,290.68L31,329.32C31,330.247 31.753,331 32.68,331L197.32,331C198.247,331 199,330.247 199,329.32L199,290.68Z" style="fill:rgb(128,128,128);"/>
                        </g>
                        <g transform="matrix(1,0,0,0.137359,0,0)">
                            <path d="M239,273.8C239,272.807 238.193,272 237.2,272L210.8,272C209.807,272 209,272.807 209,273.8L209,279.2C209,280.193 209.807,281 210.8,281L237.2,281C238.193,281 239,280.193 239,279.2L239,273.8Z" style="fill:rgb(128,128,128);"/>
                        </g>
                        <g transform="matrix(1,0,0,0.137359,-3,1.56159e-14)">
                            <path d="M242,290.68C242,289.753 241.247,289 240.32,289L213.68,289C212.753,289 212,289.753 212,290.68L212,308.32C212,309.247 212.753,310 213.68,310L240.32,310C241.247,310 242,309.247 242,308.32L242,290.68Z" style="fill:rgb(128,128,128);"/>
                        </g>
                        <g transform="matrix(1,0,0,0.274718,34,-39.6967)">
                            <path d="M242,289.75C242,289.336 241.328,289 240.5,289L213.5,289C212.672,289 212,289.336 212,289.75L212,309.25C212,309.664 212.672,310 213.5,310L240.5,310C241.328,310 242,309.664 242,309.25L242,289.75Z" style="fill:rgb(128,128,128);"/>
                        </g>
                        <g transform="matrix(1,0,0,0.137359,-1,0)">
                            <path d="M229,317.5C229,316.672 228.328,316 227.5,316L222.5,316C221.672,316 221,316.672 221,317.5L221,320.5C221,321.328 221.672,322 222.5,322L227.5,322C228.328,322 229,321.328 229,320.5L229,317.5Z" style="fill:rgb(128,128,128);"/>
                        </g>
                        <g transform="matrix(1,0,0,0.137359,-12,1.23623)">
                            <path d="M229,317.5C229,316.672 228.328,316 227.5,316L222.5,316C221.672,316 221,316.672 221,317.5L221,320.5C221,321.328 221.672,322 222.5,322L227.5,322C228.328,322 229,321.328 229,320.5L229,317.5Z" style="fill:rgb(128,128,128);"/>
                        </g>
                        <g transform="matrix(1,0,0,0.137359,-1,1.23623)">
                            <path d="M229,317.5C229,316.672 228.328,316 227.5,316L222.5,316C221.672,316 221,316.672 221,317.5L221,320.5C221,321.328 221.672,322 222.5,322L227.5,322C228.328,322 229,321.328 229,320.5L229,317.5Z" style="fill:rgb(128,128,128);"/>
                        </g>
                        <g transform="matrix(1,0,0,0.137359,10,1.23623)">
                            <path d="M229,317.5C229,316.672 228.328,316 227.5,316L222.5,316C221.672,316 221,316.672 221,317.5L221,320.5C221,321.328 221.672,322 222.5,322L227.5,322C228.328,322 229,321.328 229,320.5L229,317.5Z" style="fill:rgb(128,128,128);"/>
                        </g>
                    </g>
                    <g transform="matrix(0.658645,0.0242416,-0.176483,0.0904707,165.381,10.2735)">
                        <path d="M298.25,271L303.52,271C312.064,271 319,277.936 319,286.48L319,304.121C319,304.212 318.999,304.303 318.997,304.394C318.999,304.596 319,304.798 319,305C319,323.765 309.366,339 297.5,339C285.634,339 276,323.765 276,305C276,304.798 276.001,304.596 276.003,304.394C276.001,304.303 276,304.212 276,304.121L276,286.48C276,277.936 282.936,271 291.48,271L296.75,271L296.75,292.935L298.25,292.935L298.25,271Z" style="fill:rgb(128,128,128);"/>
                    </g>
                </g>
            </g>
        </g>
        <g transform="matrix(1,0,0,7.2802,0,1197.59)">
            <g transform="matrix(0.582207,0,0,0.582207,1328.22,7.03198)">
                <g opacity="0.25">
                    <g transform="matrix(1,0,0,1,22,-5.08228)">
                        <g transform="matrix(1,0,0,0.137359,-32,-6.31851)">
                            <path d="M342,115.48C342,109.144 336.856,104 330.52,104L92.48,104C86.144,104 81,109.144 81,115.48L81,256.52C81,262.856 86.144,268 92.48,268L330.52,268C336.856,268 342,262.856 342,256.52L342,115.48Z" style="fill:none;stroke:rgb(128,128,128);stroke-width:5.52px;"/>
                        </g>
                        <g transform="matrix(1,0,0,0.137359,-3.5,-3.98341)">
                            <rect x="165" y="251" width="36" height="36" style="fill:none;stroke:rgb(128,128,128);stroke-width:5.52px;"/>
                        </g>
                        <g transform="matrix(1,0,0,0.137359,-0.75,-3.98341)">
                            <rect x="139" y="287" width="82.5" height="9" style="fill:none;stroke:rgb(128,128,128);stroke-width:5.52px;"/>
                        </g>
                    </g>
                    <g transform="matrix(0.736472,-0.027106,1.43665,0.736472,-19.7038,14.5829)">
                        <g transform="matrix(1,0,0,0.137359,0,0)">
                            <rect x="22" y="266" width="261" height="75" style="fill:none;stroke:rgb(128,128,128);stroke-width:7.24px;"/>
                        </g>
                        <g transform="matrix(1,0,0,0.137359,0,0)">
                            <path d="M199,273.71C199,272.766 198.234,272 197.29,272L32.71,272C31.766,272 31,272.766 31,273.71L31,279.29C31,280.234 31.766,281 32.71,281L197.29,281C198.234,281 199,280.234 199,279.29L199,273.71Z" style="fill:rgb(128,128,128);"/>
                        </g>
                        <g transform="matrix(1,0,0,0.137359,0,0)">
                            <path d="M199,290.68C199,289.753 198.247,289 197.32,289L32.68,289C31.753,289 31,289.753 31,290.68L31,329.32C31,330.247 31.753,331 32.68,331L197.32,331C198.247,331 199,330.247 199,329.32L199,290.68Z" style="fill:rgb(128,128,128);"/>
                        </g>
                        <g transform="matrix(1,0,0,0.137359,0,0)">
                            <path d="M239,273.8C239,272.807 238.193,272 237.2,272L210.8,272C209.807,272 209,272.807 209,273.8L209,279.2C209,280.193 209.807,281 210.8,281L237.2,281C238.193,281 239,280.193 239,279.2L239,273.8Z" style="fill:rgb(128,128,128);"/>
                        </g>
                        <g transform="matrix(1,0,0,0.137359,-3,1.56159e-14)">
                            <path d="M242,290.68C242,289.753 241.247,289 240.32,289L213.68,289C212.753,289 212,289.753 212,290.68L212,308.32C212,309.247 212.753,310 213.68,310L240.32,310C241.247,310 242,309.247 242,308.32L242,290.68Z" style="fill:rgb(128,128,128);"/>
                        </g>
                        <g transform="matrix(1,0,0,0.274718,34,-39.6967)">
                            <path d="M242,289.75C242,289.336 241.328,289 240.5,289L213.5,289C212.672,289 212,289.336 212,289.75L212,309.25C212,309.664 212.672,310 213.5,310L240.5,310C241.328,310 242,309.664 242,309.25L242,289.75Z" style="fill:rgb(128,128,128);"/>
                        </g>
                        <g transform="matrix(1,0,0,0.137359,-1,0)">
                            <path d="M229,317.5C229,316.672 228.328,316 227.5,316L222.5,316C221.672,316 221,316.672 221,317.5L221,320.5C221,321.328 221.672,322 222.5,322L227.5,322C228.328,322 229,321.328 229,320.5L229,317.5Z" style="fill:rgb(128,128,128);"/>
                        </g>
                        <g transform="matrix(1,0,0,0.137359,-12,1.23623)">
                            <path d="M229,317.5C229,316.672 228.328,316 227.5,316L222.5,316C221.672,316 221,316.672 221,317.5L221,320.5C221,321.328 221.672,322 222.5,322L227.5,322C228.328,322 229,321.328 229,320.5L229,317.5Z" style="fill:rgb(128,128,128);"/>
                        </g>
                        <g transform="matrix(1,0,0,0.137359,-1,1.23623)">
                            <path d="M229,317.5C229,316.672 228.328,316 227.5,316L222.5,316C221.672,316 221,316.672 221,317.5L221,320.5C221,321.328 221.672,322 222.5,322L227.5,322C228.328,322 229,321.328 229,320.5L229,317.5Z" style="fill:rgb(128,128,128);"/>
                        </g>
                        <g transform="matrix(1,0,0,0.137359,10,1.23623)">
                            <path d="M229,317.5C229,316.672 228.328,316 227.5,316L222.5,316C221.672,316 221,316.672 221,317.5L221,320.5C221,321.328 221.672,322 222.5,322L227.5,322C228.328,322 229,321.328 229,320.5L229,317.5Z" style="fill:rgb(128,128,128);"/>
                        </g>
                    </g>
                    <g transform="matrix(0.658645,0.0242416,-0.176483,0.0904707,165.381,10.2735)">
                        <path d="M298.25,271L303.52,271C312.064,271 319,277.936 319,286.48L319,304.121C319,304.212 318.999,304.303 318.997,304.394C318.999,304.596 319,304.798 319,305C319,323.765 309.366,339 297.5,339C285.634,339 276,323.765 276,305C276,304.798 276.001,304.596 276.003,304.394C276.001,304.303 276,304.212 276,304.121L276,286.48C276,277.936 282.936,271 291.48,271L296.75,271L296.75,292.935L298.25,292.935L298.25,271Z" style="fill:rgb(128,128,128);"/>
                    </g>
                </g>
            </g>
        </g>
    </g>
</svg>
