<?xml version="1.0" encoding="UTF-8" standalone="no"?>
<!DOCTYPE svg PUBLIC "-//W3C//DTD SVG 1.1//EN" "http://www.w3.org/Graphics/SVG/1.1/DTD/svg11.dtd">
<svg width="100%" height="100%" viewBox="0 0 17 16" version="1.1" xmlns="http://www.w3.org/2000/svg" xmlns:xlink="http://www.w3.org/1999/xlink" xml:space="preserve" xmlns:serif="http://www.serif.com/" style="fill-rule:evenodd;clip-rule:evenodd;stroke-linejoin:round;stroke-miterlimit:1.41421;">
    <g transform="matrix(1,0,0,1,-368.393,-514.899)">
        <g transform="matrix(1,0,0,7.2802,29,11.7153)">
            <g transform="matrix(0.38885,0,0,0.38885,177.631,41.8333)">
                <g transform="matrix(1,0,0,0.137359,0,0)">
                    <path d="M433.282,528.199L433.282,510.811L441.718,510.811L441.718,528.199L450.25,528.199L437.5,542.184L424.75,528.199L433.282,528.199Z" style="fill:white;"/>
                </g>
                <g transform="matrix(1,0,0,0.137359,0,0)">
                    <path d="M457.123,543.184C458.159,543.184 459,544.025 459,545.061L459,548.815C459,549.85 458.159,550.691 457.123,550.691L417.877,550.691C416.841,550.691 416,549.85 416,548.815L416,545.061C416,544.025 416.841,543.184 417.877,543.184L457.123,543.184ZM448,545.938C448.552,545.938 449,546.386 449,546.938C449,547.49 448.552,547.938 448,547.938C447.448,547.938 447,547.49 447,546.938C447,546.386 447.448,545.938 448,545.938ZM452,545.938C452.552,545.938 453,546.386 453,546.938C453,547.49 452.552,547.938 452,547.938C451.448,547.938 451,547.49 451,546.938C451,546.386 451.448,545.938 452,545.938Z" style="fill:white;"/>
                </g>
            </g>
        </g>
    </g>
</svg>
