<?xml version="1.0" encoding="UTF-8" standalone="no"?>
<!DOCTYPE svg PUBLIC "-//W3C//DTD SVG 1.1//EN" "http://www.w3.org/Graphics/SVG/1.1/DTD/svg11.dtd">
<svg width="100%" height="100%" viewBox="0 0 24 24" version="1.1" xmlns="http://www.w3.org/2000/svg" xmlns:xlink="http://www.w3.org/1999/xlink" xml:space="preserve" xmlns:serif="http://www.serif.com/" style="fill-rule:evenodd;clip-rule:evenodd;stroke-linejoin:round;stroke-miterlimit:1.41421;">
    <g transform="matrix(1,0,0,1,-1678.88,-812.593)">
        <g transform="matrix(1,0,0,7.2802,0,0)">
            <g id="flame" transform="matrix(0.045498,0,0,0.00624956,1690.51,113.214)">
                <g transform="matrix(1,0,0,1,-255.635,-255.635)">
                    <path d="M231.89,507.971C198.508,502.19 167.285,488.548 140.367,465.067C116.9,438.4 93.434,410.667 78.5,377.6C63.567,342.4 59.3,301.867 66.767,263.467C74.234,225.067 91.3,188.8 115.834,157.867C113.701,184.534 123.301,212.267 141.434,232.534C130.767,181.334 147.834,125.867 181.967,85.334C216.1,44.801 263.034,18.133 312.1,0C287.567,25.6 284.367,66.133 293.967,100.267C303.567,134.4 323.834,164.267 341.967,195.2C360.1,226.133 377.167,258.133 378.234,293.333C387.834,275.2 398.501,257.066 404.901,236.8C411.301,216.533 414.501,195.2 409.168,174.933C428.368,198.4 439.035,221.866 444.368,251.733C449.701,281.6 448.635,312.533 445.435,342.4C441.168,375.467 432.635,409.6 414.502,437.333C393.169,470.4 359.035,493.866 321.702,506.666C301.467,510.256 281.332,511.849 261.693,511.078C332.539,507.028 387.829,422.749 347.3,355.2C347.3,354.231 346.421,354.142 346.259,353.336L346.233,353.067C346.233,353.165 346.242,353.255 346.259,353.336C350.456,396.932 339.791,428.837 319.566,446.934C330.233,421.334 322.766,391.467 309.966,365.867C297.166,341.334 279.033,318.934 265.166,295.467C251.299,270.934 240.633,243.2 247.033,215.467C221.433,234.667 203.3,263.467 195.833,294.4C188.366,325.333 192.633,359.467 206.5,388.267C190.5,376.534 178.767,357.334 177.7,337.067C160.633,357.334 149.967,384 151.033,410.667C151.034,452.267 184.1,489.6 221.434,504.533C224.924,505.895 228.412,507.038 231.89,507.971Z" style="fill:rgb(255,56,22);fill-rule:nonzero;"/>
                </g>
            </g>
        </g>
    </g>
</svg>
