<?xml version="1.0" encoding="UTF-8" standalone="no"?>
<!DOCTYPE svg PUBLIC "-//W3C//DTD SVG 1.1//EN" "http://www.w3.org/Graphics/SVG/1.1/DTD/svg11.dtd">
<svg width="100%" height="100%" viewBox="0 0 38 38" version="1.1" xmlns="http://www.w3.org/2000/svg" xmlns:xlink="http://www.w3.org/1999/xlink" xml:space="preserve" xmlns:serif="http://www.serif.com/" style="fill-rule:evenodd;clip-rule:evenodd;stroke-linejoin:round;stroke-miterlimit:1.41421;">
    <g transform="matrix(1,0,0,1,-1283.37,-1097.4)">
        <g transform="matrix(1,0,0,7.2802,0,0)">
            <g id="sad" transform="matrix(0.0725899,0,0,0.00997086,1301.95,153.29)">
                <g transform="matrix(1,0,0,1,-256,-256)">
                    <circle cx="256" cy="256" r="256" style="fill:rgb(255,202,40);"/>
                    <g>
                        <path d="M357.824,394.176C353.728,394.176 349.632,392.608 346.496,389.504C298.112,341.12 213.824,341.12 165.472,389.504C159.232,395.744 149.088,395.744 142.848,389.504C136.608,383.264 136.608,373.12 142.848,366.88C173.088,336.672 213.248,320 256,320C298.752,320 338.912,336.672 369.12,366.88C375.36,373.12 375.36,383.264 369.12,389.504C366.016,392.64 361.92,394.176 357.824,394.176Z" style="fill:rgb(109,76,65);fill-rule:nonzero;"/>
                        <circle cx="160" cy="192" r="32" style="fill:rgb(109,76,65);"/>
                        <circle cx="352" cy="192" r="32" style="fill:rgb(109,76,65);"/>
                    </g>
                </g>
            </g>
        </g>
    </g>
</svg>
